<?xml version="1.0" encoding="UTF-8" standalone="no"?>
<!-- Created with Inkscape (http://www.inkscape.org/) -->

<svg
   width="48"
   height="48"
   viewBox="0 0 48 48"
   version="1.1"
   id="svg1"
   inkscape:version="1.3.1 (9b9bdc1480, 2023-11-25, custom)"
   sodipodi:docname="caveira_small.svg"
   xmlns:inkscape="http://www.inkscape.org/namespaces/inkscape"
   xmlns:sodipodi="http://sodipodi.sourceforge.net/DTD/sodipodi-0.dtd"
   xmlns="http://www.w3.org/2000/svg"
   xmlns:svg="http://www.w3.org/2000/svg">
  <sodipodi:namedview
     id="namedview1"
     pagecolor="#ffffff"
     bordercolor="#000000"
     borderopacity="0.25"
     inkscape:showpageshadow="2"
     inkscape:pageopacity="0.0"
     inkscape:pagecheckerboard="0"
     inkscape:deskcolor="#d1d1d1"
     inkscape:document-units="px"
     inkscape:zoom="7.2036503"
     inkscape:cx="20.059275"
     inkscape:cy="24.085011"
     inkscape:window-width="1228"
     inkscape:window-height="731"
     inkscape:window-x="0"
     inkscape:window-y="0"
     inkscape:window-maximized="1"
     inkscape:current-layer="layer1" />
  <defs
     id="defs1" />
  <g
     inkscape:label="Layer 1"
     inkscape:groupmode="layer"
     id="layer1">
    <g
       id="g2"
       transform="matrix(0.8453601,0,0,0.45402817,-31.974892,-0.7890992)">
      <path
         d="M 69.936705,83.602584"
         style="fill:#5acc5a;fill-opacity:1"
         id="path1-6"
         transform="matrix(0.67581507,0,0,0.73347464,28.14603,25.236644)" />
      <path
         style="fill:#d8f000;fill-opacity:1"
         d="m 60.249292,42.118832 -0.02398,4.31393 10.334428,-5.495614 -0.01923,-4.076769 z"
         id="path4-2-7"
         sodipodi:nodetypes="ccccc"
         transform="matrix(0.67581507,0,0,0.73347464,28.14603,25.236644)" />
      <path
         style="fill:#af88d6;fill-opacity:1"
         d="m 72.725398,35.871338 -0.02398,4.31393 10.334428,-5.495614 -0.01923,-4.076769 z"
         id="path4-2-7-1"
         sodipodi:nodetypes="ccccc"
         transform="matrix(0.67581507,0,0,0.73347464,28.14603,25.236644)" />
      <path
         style="fill:#af88d6;fill-opacity:1"
         d="m 48.344478,47.995698 -0.02398,4.31393 10.334428,-5.495614 -0.01923,-4.076769 z"
         id="path4-2-7-4"
         sodipodi:nodetypes="ccccc"
         inkscape:transform-center-x="-0.032226591"
         inkscape:transform-center-y="-0.34814457"
         transform="matrix(0.67581507,0,0,0.73347464,28.14603,25.236644)" />
      <path
         style="fill:#af88d6;fill-opacity:1"
         d="m 35.709189,54.128161 -0.02398,4.31393 10.334428,-5.495614 -0.01923,-4.076769 z"
         id="path4-2-7-4-5"
         sodipodi:nodetypes="ccccc"
         inkscape:transform-center-x="-0.032226591"
         inkscape:transform-center-y="-0.34814457"
         transform="matrix(0.67581507,0,0,0.73347464,28.14603,25.236644)" />
      <path
         style="fill:#af88d6;fill-opacity:1"
         d="m 40.997265,92.228284 -0.02398,4.313927 10.334428,-5.495611 -0.01923,-4.076769 z"
         id="path4-2-7-4-5-6"
         sodipodi:nodetypes="ccccc"
         inkscape:transform-center-x="-0.032226591"
         inkscape:transform-center-y="-0.34814457"
         transform="matrix(0.67581507,0,0,0.73347464,28.14603,25.236644)" />
      <path
         style="fill:#af88d6;fill-opacity:1"
         d="m 52.663077,85.947163 -0.02398,4.313927 10.334428,-5.495611 -0.01923,-4.076769 z"
         id="path4-2-7-4-5-6-3"
         sodipodi:nodetypes="ccccc"
         inkscape:transform-center-x="-0.032226591"
         inkscape:transform-center-y="-0.34814457"
         transform="matrix(0.67581507,0,0,0.73347464,28.14603,25.236644)" />
      <path
         style="fill:#af88d6;fill-opacity:1"
         d="m 64.695638,79.817088 -0.02398,4.313927 10.334428,-5.495611 -0.01923,-4.076769 z"
         id="path4-2-7-4-5-6-3-2"
         sodipodi:nodetypes="ccccc"
         inkscape:transform-center-x="-0.032226591"
         inkscape:transform-center-y="-0.34814457"
         transform="matrix(0.67581507,0,0,0.73347464,28.14603,25.236644)" />
      <path
         style="fill:#af88d6;fill-opacity:1"
         d="m 76.696485,73.604642 -0.02398,4.313927 10.334428,-5.495611 -0.01923,-4.076769 z"
         id="path4-2-7-4-5-6-3-2-4"
         sodipodi:nodetypes="ccccc"
         inkscape:transform-center-x="-0.032226591"
         inkscape:transform-center-y="-0.34814457"
         transform="matrix(0.67581507,0,0,0.73347464,28.14603,25.236644)" />
      <g
         id="g14"
         transform="matrix(0.67581507,0,0,0.73347464,31.117743,23.91945)">
        <path
           d="m 54.480469,49.933594 -11.554688,6.130859 -0.04883,33.304688 11.689453,-5.984375 z m -3.265625,7.378906 0.02344,22.660156 -4.6875,2.605469 -0.01367,-22.753906 z"
           style="fill:#663399;fill-opacity:1"
           id="path3" />
        <path
           d="m 79.981224,36.574847 -11.554688,6.130859 -0.04883,33.304688 11.689453,-5.984375 z m -3.265625,7.378906 0.02344,22.660156 -4.6875,2.605469 -0.01367,-22.753906 z"
           style="fill:#663399;fill-opacity:1"
           id="path3-2" />
        <path
           d="M 67.177734,43.439453 55.623047,49.570312 55.574219,82.875 59.25,80.992187 l 0.002,-4.910156 -0.0039,0.002 -0.01367,-22.753906 4.677734,-2.511719 0.02344,22.660157 -0.002,0.002 -0.002,5.115234 3.332031,-1.705078 z"
           style="fill:#663399;fill-opacity:1"
           id="path5" />
        <path
           style="fill:#663399;fill-opacity:1;stroke-width:1.02468"
           d="m 59.211923,64.094566 0.0022,4.93136 4.894788,-2.420554 -0.0038,-5.184191 z"
           id="path4-2"
           sodipodi:nodetypes="ccccc" />
        <path
           d="m 41.673828,56.392578 -3.240234,1.71875 0.0039,23.318359 -0.01172,0.0059 0.0059,4.996094 -4.6875,2.605468 -0.0039,-5.138672 -3.654297,1.919922 -0.01563,10.009766 11.689454,-5.984375 z"
           style="fill:#663399;fill-opacity:1"
           id="path12" />
      </g>
      <path
         d="M 94.798828,1.9921875 37.75,28.027344 37.7598,64.474609 45.039096,60.933594 45.007846,67.982422 90.019531,43.740234 90,37.480469 94.787109,34.833984 Z m -13.498047,18.0214845 3.832031,1.83789 -2.894531,6.033204 6.4375,3.03125 -1.8125,3.845703 -6.46289,-3.044922 -3.126954,6.519531 -3.832031,-1.837891 3.113281,-6.492187 -6.130859,-2.886719 1.808594,-3.845703 6.160156,2.900391 z m -25.40039,12.732422 3.832031,1.83789 -2.894531,6.033203 6.4375,3.03125 -1.8125,3.845704 L 55,44.449219 l -3.126953,6.519531 -3.832031,-1.837891 3.113281,-6.490234 -6.132813,-2.888672 1.810547,-3.845703 6.160156,2.902344 z"
         style="fill:#663399;fill-opacity:1"
         id="path21" />
      <path
         style="fill:#663399;fill-opacity:1"
         d="m 49.975341,100.27363 40.548232,-22.990867 -0.0918,7.821289 -40.635234,22.480308 z"
         id="path14"
         sodipodi:nodetypes="ccccc" />
    </g>
  </g>
</svg>
