<?xml version="1.0" encoding="UTF-8" standalone="no"?>
<!-- Created with Inkscape (http://www.inkscape.org/) -->

<svg
   width="1080"
   height="608"
   viewBox="0 0 1080 608"
   version="1.1"
   id="svg5"
   xmlns="http://www.w3.org/2000/svg"
   xmlns:svg="http://www.w3.org/2000/svg">
  <defs
     id="defs2" />
  <g
     id="layer1">
    <path
       style="fill:#000000"
       id="path231"
       d="m 230.08669,95.872773 c -0.52689,0.593107 -1.0848,1.160041 -1.58067,1.779319 -1.75668,2.193901 -6.32837,8.511438 -7.41837,10.015148 -9.36753,12.92302 -18.1578,26.22423 -27.06144,39.46989 -26.85988,40.30931 -52.78232,81.22861 -79.4797,121.64426 -2.60425,3.92048 -5.2085,7.84097 -7.81275,11.76145 0,0 10.66008,6.20405 10.66008,6.20405 v 0 c 2.37559,-4.05223 4.75117,-8.10446 7.12675,-12.1567 24.8463,-41.56076 50.43611,-82.72435 79.05682,-121.82417 7.49841,-10.19383 14.09731,-19.36714 21.85554,-29.2354 2.3724,-3.01763 4.8322,-5.96597 7.29818,-8.90762 1.61495,-1.92646 5.97363,-7.02958 8.28588,-9.26526 0.46409,-0.44872 1.01801,-0.79409 1.52701,-1.19113 0,0 -12.45733,-8.293837 -12.45733,-8.293837 z" />
    <path
       style="fill:#000000"
       id="path233"
       d="m 126.69644,120.94823 c 4.44463,-2.53481 9.38621,-4.12525 14.24054,-5.65307 9.70898,-3.05572 15.69872,-4.71504 26.0884,-6.76172 6.54095,-1.28851 13.14179,-2.25171 19.71269,-3.37757 20.5081,-2.59812 23.63691,-3.21932 44.20066,-4.93019 6.73753,-0.560545 13.47632,-1.204926 20.23449,-1.393764 5.99971,-0.167644 12.05287,-0.460775 18.00322,0.325325 14.85506,1.962499 17.53769,4.894209 30.22295,11.806429 -0.79991,17.03509 -0.0451,-13.979847 4.50111,18.54931 0.62853,4.4973 0.44247,9.28793 -1.02832,13.58415 -1.65306,4.82865 -4.63034,9.24303 -8.07554,13.00854 -10.33545,11.29637 -21.62125,15.69676 -34.94138,22.81752 -7.65594,3.05948 -15.19828,6.42016 -22.96782,9.17844 -14.69802,5.21798 -30.51893,9.41773 -45.72048,12.93557 -10.43598,2.41502 -23.51205,4.90937 -34.27455,6.5763 -3.95628,0.61276 -7.93763,1.05101 -11.90644,1.57652 -5.72773,0.41382 -9.391,1.00242 -14.90511,0.39867 -1.34395,-0.14715 -2.641,-0.58015 -3.9615,-0.87022 0,0 11.46042,8.62486 11.46042,8.62486 v 0 c 1.25839,0.14811 2.50858,0.40944 3.77518,0.44433 5.32924,0.14678 8.57408,-0.5341 14.09556,-1.23688 3.78615,-0.6715 7.58498,-1.27503 11.35843,-2.01451 18.42733,-3.6112 36.77966,-8.01658 54.80003,-13.29328 7.96435,-2.3321 15.9222,-4.71048 23.75321,-7.45725 7.87578,-2.76248 15.56096,-6.04098 23.34144,-9.06147 13.31268,-6.75396 25.93121,-11.576 36.48995,-22.55761 7.73471,-8.04448 11.30511,-16.29852 9.8692,-27.4403 -0.61403,-4.76447 -1.77413,-9.84595 -4.77419,-13.59786 -5.59375,-6.99562 -13.49046,-11.78655 -20.23569,-17.67983 -12.77617,-6.629975 -15.40755,-9.43692 -30.25024,-11.114267 -5.86023,-0.662256 -11.80078,-0.243231 -17.69259,0.01669 -6.65831,0.293733 -13.28955,1.037144 -19.92676,1.642899 -19.66331,1.794601 -24.79523,2.505194 -44.52553,4.777352 -6.83259,0.968719 -13.68935,1.780026 -20.49777,2.906156 -14.51483,2.40078 -29.07465,5.74474 -42.84641,10.9788 0,0 12.38284,8.29193 12.38284,8.29193 z" />
    <path
       style="fill:#000000"
       id="path235"
       d="m 338.36833,99.150044 c -5.22179,15.337836 -13.45987,29.371506 -20.99348,43.640476 -3.42341,6.48409 -6.83018,12.97696 -10.24526,19.46544 -12.29388,23.83513 -23.24673,48.32989 -33.2149,73.22083 -5.65263,14.11483 -10.63288,27.47381 -15.36978,41.86884 -1.69335,5.14594 -3.17408,10.35942 -4.76111,15.53913 -1.77725,8.02054 -5.48976,20.32891 -0.26527,28.17176 1.37571,2.06517 3.36329,3.77115 5.52556,4.98855 19.59776,11.03394 15.61199,9.23408 33.01537,10.8477 16.04675,0.0883 32.98198,-0.21587 47.59911,-7.80818 2.4255,-1.25983 4.53117,-3.05766 6.79675,-4.58649 0,0 -11.41458,-7.27891 -11.41458,-7.27891 v 0 c -2.11804,1.51215 -4.07174,3.2861 -6.35414,4.53646 -14.23737,7.79961 -30.97386,8.06775 -46.74014,7.61047 -4.26861,-0.58739 -8.56153,-2.50514 -12.80583,-1.76218 -1.44183,0.25239 4.00276,3.90498 2.58225,3.55181 -2.34119,-0.58208 -4.28343,-2.46049 -5.78556,-4.34823 -5.98624,-7.52302 -2.98942,-19.99649 -1.70455,-28.23515 1.33875,-5.29633 2.52773,-10.63279 4.01627,-15.88899 11.36098,-40.11667 28.03999,-78.62252 48.2245,-115.05617 3.67158,-6.33896 7.32531,-12.68829 11.01475,-19.01688 2.93308,-5.03119 5.885,-10.05142 8.8527,-15.06227 2.31287,-3.90519 4.72498,-7.75188 6.98888,-11.68566 5.08797,-8.84093 3.25186,-5.9437 6.74287,-12.95767 0.39726,-0.79816 0.83898,-1.57341 1.25847,-2.36011 0,0 -12.96288,-7.394576 -12.96288,-7.394576 z" />
    <path
       style="fill:#000000"
       id="path237"
       d="m 405.3453,233.18373 c -1.65126,0.9863 -6.40425,3.78313 -7.72657,4.77335 -3.96222,2.96713 -8.28165,7.08784 -11.21318,10.97984 -5.6106,7.44882 -8.10499,13.15907 -12.41891,21.47446 -4.36942,9.98335 -9.58335,19.79008 -10.87448,30.78069 -0.49519,4.21522 -0.54802,8.74719 1.83443,12.5134 0.98105,1.55086 2.63491,2.55495 3.95237,3.83243 6.06523,2.50034 11.7642,6.20693 18.19568,7.50102 2.45298,0.49357 4.92005,-1.19769 7.10924,-2.40937 2.76157,-1.52847 5.22844,-3.57515 7.5557,-5.70738 2.74013,-2.5105 5.37709,-5.18105 7.58858,-8.16773 5.33288,-7.20219 8.84761,-15.49485 12.69822,-23.49828 4.19665,-9.74144 7.84076,-19.84081 9.80659,-30.29869 0.51854,-2.75852 1.01328,-7.05368 0.69585,-10.07942 -0.0547,-0.5215 -0.34055,-0.99188 -0.51083,-1.48783 -4.7884,-1.46427 -9.38093,-4.87221 -14.36522,-4.39282 -1.98271,0.1907 -0.86062,3.89774 -1.07581,5.87795 -0.36027,3.31519 -0.51893,6.65092 -0.64784,9.98314 -0.31938,8.25537 -0.2864,15.63336 0.26742,23.88622 0.24813,3.69748 0.7272,7.37584 1.0908,11.06375 1.44549,8.49855 2.6466,19.76627 9.32178,26.16436 4.41392,4.23068 20.75348,9.34595 21.04147,9.46122 2.21594,-1.0763 4.60909,-1.846 6.64782,-3.2289 7.06955,-4.79538 10.12935,-9.19115 15.80418,-15.65171 0,0 -10.91153,-6.61334 -10.91153,-6.61334 v 0 c -6.03822,6.45128 -8.66884,10.32493 -16.28298,14.67336 -2.05731,1.17493 -4.44367,1.64489 -6.6655,2.46733 2.4614,2.18431 5.3934,3.93253 7.38419,6.55292 0.9212,1.21252 -2.84503,-1.19234 -4.0342,-2.1435 -7.19361,-5.75383 -9.08214,-17.61468 -10.73039,-25.93958 -0.43046,-3.68799 -1.01333,-7.36137 -1.29138,-11.06397 -0.58308,-7.76463 -0.60441,-15.76048 0.0502,-23.52436 0.26731,-3.1704 0.70572,-6.32946 1.28242,-9.45841 0.32646,-1.77123 2.5017,-3.7715 1.42168,-5.21282 -2.95774,-3.94718 -7.93925,-5.85509 -11.90888,-8.78264 0.42519,0.31918 1.08631,0.4607 1.27558,0.95753 0.91228,2.39462 0.5585,8.26708 0.32424,10.15633 -1.30707,10.54096 -4.80032,20.7176 -8.82688,30.48185 -1.95287,4.01113 -3.6698,8.14599 -5.85862,12.0334 -4.55753,8.09436 -7.78552,12.78438 -14.79376,18.66095 -2.3493,1.96994 -4.86882,3.80883 -7.63845,5.12375 -2.17065,1.03054 -6.67393,-0.56894 -6.9764,1.81481 -0.35766,2.81876 3.98312,4.05317 5.97468,6.07975 -1.422,-1.08169 -3.15386,-1.84677 -4.26601,-3.24509 -2.77702,-3.49159 -3.00748,-7.89201 -2.7602,-12.11939 0.17459,-2.98482 0.56226,-5.97892 1.31224,-8.87324 1.73587,-6.69906 5.99458,-15.73693 8.68928,-21.92413 2.03937,-3.76671 3.85493,-7.66348 6.1181,-11.30012 6.66307,-10.70677 14.93661,-19.05745 26.58533,-23.9794 0,0 -12.25005,-8.19169 -12.25005,-8.19169 z" />
    <path
       style="fill:#000000"
       id="path239"
       d="m 507.17761,259.30646 c 6.45387,-7.05917 12.35473,-14.63714 17.19152,-22.90279 1.03581,-1.77011 1.96426,-3.60091 2.94639,-5.40137 0.99561,-2.02841 3.19139,-6.17724 3.81728,-8.55716 0.26829,-1.02014 1.13789,-2.47396 0.3262,-3.14762 -4.35636,-3.61557 -9.32765,-6.60745 -14.59131,-8.69174 -1.27613,-0.50532 -2.66827,0.7335 -3.88043,1.37734 -1.88317,1.00023 -3.56069,2.34705 -5.34104,3.52058 -2.16662,1.91893 -4.49578,3.66867 -6.49986,5.75678 -5.1538,5.36989 -10.23802,12.34813 -14.08765,18.65201 -4.59195,7.51945 -8.11153,14.40807 -10.32456,22.99784 -1.00897,3.91627 -1.25218,7.99081 -1.87827,11.98622 0.69516,8.85979 0.12957,13.36496 4.24225,21.42025 6.19634,12.13649 21.35157,20.76335 32.78014,25.97958 2.61051,1.19149 5.64785,1.01959 8.47177,1.52938 3.01562,-0.96434 6.22257,-1.46216 9.04685,-2.89302 7.34377,-3.72056 11.03786,-8.34656 16.73923,-14.05684 0,0 -11.0358,-6.76937 -11.0358,-6.76937 v 0 c -2.58986,2.54055 -4.93603,5.3561 -7.7696,7.62165 -8.09576,6.47289 -8.37204,5.56759 -17.70343,7.97967 -2.70223,-0.59283 -5.34983,-2.00904 -8.1067,-1.77849 -1.31915,0.11032 4.28757,3.08242 3.32023,2.17877 -2.40577,-2.24735 -5.36071,-3.87813 -7.6608,-6.23353 -5.44769,-5.57866 -8.15235,-10.20119 -9.89932,-17.86401 -0.83147,-3.6471 -0.77221,-7.4414 -1.15831,-11.16209 0.55541,-3.93948 0.70688,-7.9574 1.66621,-11.81844 3.58678,-14.43567 13.9315,-30.49992 24.72946,-40.66 2.09097,-1.96744 4.51351,-3.54967 6.77027,-5.3245 1.84068,-0.97177 3.575,-2.17947 5.52205,-2.91531 1.12694,-0.42591 4.34967,0.40049 3.57616,-0.52315 -14.73876,-17.59946 -8.96636,-8.57479 -9.76635,-4.09365 -0.42716,2.39272 -2.47655,6.5584 -3.37629,8.57411 -0.93276,1.79408 -1.79721,3.62536 -2.79827,5.38224 -4.68699,8.22577 -10.6497,15.79507 -17.84258,21.9689 0,0 12.57456,7.86776 12.57456,7.86776 z" />
    <path
       style="fill:#000000"
       id="path241"
       d="m 587.99407,279.04713 c 15.6636,-6.40399 31.71658,-13.23415 44.18968,-25.03403 2.09387,-1.98087 3.87417,-4.26889 5.81125,-6.40334 1.27491,-1.99106 2.82943,-3.82863 3.82473,-5.97319 1.48291,-3.19519 2.32591,-7.26574 0.61889,-10.6365 -0.88623,-1.75 -2.23466,-3.3617 -3.8877,-4.41781 -16.05616,-10.2581 -14.0853,-9.00752 -27.43071,-12.03849 -3.00475,-0.24598 -5.99991,-0.79111 -9.01424,-0.73793 -8.85765,0.15626 -16.31509,2.86296 -22.10083,9.80964 -4.69058,5.63176 -5.25434,9.17878 -7.67819,15.98422 0.067,3.45854 -0.51621,6.99163 0.20114,10.37563 0.8282,3.9069 2.53488,7.60786 4.36369,11.15825 3.94408,7.65688 9.63722,14.89318 16.45808,20.20021 10.90622,8.48566 28.70107,15.3735 40.02912,20.59784 17.85441,4.18844 21.01175,5.92187 40.03456,6.08164 7.46748,0.0627 14.93543,-0.5599 22.36416,-1.3221 7.00309,-0.71853 13.92565,-2.07714 20.88847,-3.1157 0,0 -8.97578,-6.31648 -8.97578,-6.31648 v 0 c -6.86505,1.06506 -13.68223,2.50608 -20.59514,3.19518 -7.44525,0.74217 -14.93956,1.2603 -22.41982,1.0927 -18.90797,-0.42365 -22.7396,-2.37548 -40.44488,-6.80427 -2.07016,-0.24347 -4.30725,0.11959 -6.2105,-0.73043 -12.6456,-5.64772 -23.02973,-15.29083 -29.50625,-27.50022 -1.78644,-3.36776 -3.45931,-6.8825 -4.2817,-10.60498 -0.70817,-3.20543 -0.15754,-6.56356 -0.23632,-9.84534 2.39813,-6.61191 2.88685,-9.88756 7.51536,-15.30167 5.60486,-6.55617 12.86555,-9.0245 21.31574,-9.01382 2.98502,0.004 5.93921,0.60606 8.90881,0.90909 2.88825,0.76695 5.86248,3.33885 8.66477,2.30087 1.89693,-0.70264 -2.7711,-3.49531 -4.77912,-3.74014 -1.80992,-0.22068 3.06735,2.13133 4.0707,3.65376 3.54705,5.3821 -0.40968,11.35444 -3.19455,15.79096 -1.82878,2.12401 -3.48875,4.40595 -5.48635,6.37204 -12.28414,12.09032 -28.5967,18.97572 -44.78953,24.02733 0,0 11.77246,7.98708 11.77246,7.98708 z" />
    <path
       style="fill:#000000"
       id="path243"
       d="m 346.12051,356.60029 c -1.20328,2.50508 -2.29469,5.06704 -3.60985,7.51524 -6.5466,12.18673 -11.40182,19.49714 -18.76632,31.78189 -4.1148,6.86394 -8.23351,13.72636 -12.23752,20.65551 -5.91706,10.23979 -17.37459,30.95229 -23.25456,41.53238 -9.24115,16.92816 -18.52774,33.8317 -27.8999,50.68771 0,0 11.52737,6.57836 11.52737,6.57836 v 0 c 8.21589,-17.47877 16.67178,-34.842 25.55432,-51.99384 8.5162,-15.86285 13.73229,-25.99476 23.04946,-41.59401 11.93263,-19.97819 25.18588,-39.12597 38.77051,-58.00425 0,0 -13.13351,-7.15899 -13.13351,-7.15899 z" />
    <path
       style="fill:#000000"
       id="path245"
       d="m 419.69395,361.77449 c -8.76458,22.8671 -21.65203,43.89782 -34.06889,64.90716 -10.955,18.23627 -22.59874,36.04339 -33.90057,54.0625 -9.14523,14.58072 -18.08199,29.29554 -26.9572,44.04157 -5.93238,9.7098 -11.46751,19.65397 -16.89121,29.65407 0,0 12.20078,6.94906 12.20078,6.94906 v 0 c 4.77069,-10.32095 9.72229,-20.56207 15.23677,-30.51145 8.383,-15.01171 16.92082,-29.93805 25.89743,-44.60591 11.1078,-18.15021 22.83602,-35.9153 34.08161,-53.97913 9.16827,-14.67236 18.42925,-29.31555 27.0157,-44.3416 1.75339,-3.06838 3.36492,-6.21578 5.07624,-9.30781 5.60892,-10.13426 2.01264,-3.29397 5.2784,-9.5818 0,0 -12.96906,-7.28666 -12.96906,-7.28666 z" />
    <path
       style="fill:#000000"
       id="path247"
       d="m 281.45087,462.2997 c 3.08572,-0.69457 6.15287,-1.47753 9.25717,-2.08372 35.99374,-7.02866 72.47528,-11.17285 108.84381,-15.69792 0,0 -7.6599,-5.41537 -7.6599,-5.41537 v 0 c -9.54015,1.29365 -19.07155,2.6535 -28.62044,3.88094 -31.24142,4.01586 -62.54839,7.57964 -93.88987,10.7144 0,0 12.06923,8.60167 12.06923,8.60167 z" />
    <path
       style="fill:#000000"
       id="path249"
       d="m 436.61677,464.87152 c -0.80379,0.033 -1.61285,0.001 -2.41139,0.099 -7.51468,0.91809 -17.18312,3.92286 -23.7558,7.5673 -1.9992,1.10853 -3.79561,2.5487 -5.69341,3.82305 -1.52579,1.5189 -3.28218,2.83694 -4.57737,4.5567 -3.66467,4.86598 -4.66514,10.70644 -2.82456,16.50383 1.31661,4.14703 2.70248,5.19059 5.38288,8.40003 8.09576,5.36376 9.25558,6.37647 21.79881,11.75577 1.76112,0.75528 3.7358,1.08845 5.65169,1.05175 4.11267,-0.0788 9.15336,-2.17147 12.67268,-4.0362 1.94814,-1.03223 3.72211,-2.36409 5.58316,-3.54614 1.52292,-1.23854 3.12938,-2.38091 4.56874,-3.71563 3.71799,-3.44769 8.35438,-9.07631 8.04184,-14.54148 -0.0608,-1.06265 -0.50427,-2.06818 -0.7564,-3.10227 -0.54861,-0.89537 -0.99983,-1.85825 -1.64583,-2.6861 -0.96765,-1.24007 -3.08852,-3.12816 -4.46819,-3.95818 -8.64071,-5.19825 -12.02012,-7.31516 -19.35998,-10.60919 0,0 11.48234,9.11114 11.48234,9.11114 v 0 c 4.61009,2.09778 13.53493,7.09203 -5.6627,-3.84003 -0.82653,-0.47067 1.62725,0.9908 2.38921,1.56011 0.80523,0.60164 1.60042,1.22771 2.30347,1.9461 0.68015,0.695 1.21793,1.51629 1.8269,2.27443 0.3414,0.87719 0.8654,1.70377 1.02421,2.63156 0.86416,5.04837 -3.68956,10.60423 -7.02098,13.79742 -1.36612,1.30943 -2.90323,2.42794 -4.35484,3.64191 -1.80353,1.12719 -3.50986,2.42736 -5.41058,3.38156 -3.74365,1.8794 -8.08421,3.40026 -12.36438,3.24078 -1.88711,-0.0703 -6.14793,-3.01568 -5.52985,-1.23127 0.91337,2.63686 4.85746,2.88121 6.7965,4.88805 1.1967,1.23855 -3.0065,-1.6809 -4.50975,-2.52135 -2.78846,-2.90362 -4.25104,-3.86589 -5.77093,-7.75407 -2.12732,-5.44211 -1.52268,-10.67404 1.98255,-15.39434 1.2277,-1.65328 2.90975,-2.91473 4.36462,-4.37209 1.83352,-1.22326 3.5647,-2.61594 5.50057,-3.66977 2.06939,-1.12651 4.26261,-2.02243 6.46991,-2.84658 6.47101,-2.41612 13.43853,-4.01364 20.37313,-3.61734 0,0 -12.09627,-8.78845 -12.09627,-8.78845 z" />
    <path
       style="fill:#000000"
       id="path251"
       d="m 524.14978,383.85279 c -1.63021,3.31964 -3.15533,6.69299 -4.89063,9.95892 -2.42689,4.56758 -5.0597,9.02274 -7.5914,13.53308 -6.14376,10.94537 -11.26584,19.81717 -17.00631,31.00188 -7.72194,15.04538 -7.33728,14.91517 -13.77384,30.18171 -4.45107,11.58901 -8.42156,23.3672 -11.87592,35.29172 -1.38905,4.79504 -2.8269,10.20054 -3.81397,15.13384 -0.38463,1.92235 -0.64508,3.86748 -0.96762,5.80122 -0.36785,3.48854 -1.28263,10.1558 0.74502,13.41417 0.41377,0.66491 0.93417,1.32041 1.61635,1.70502 4.99127,2.81401 10.20085,5.22193 15.30127,7.8329 7.79454,-0.006 15.15408,-2.94907 22.04088,-6.34618 0.92362,-0.59818 1.84724,-1.19636 2.77087,-1.79454 0,0 -12.18166,-7.83081 -12.18166,-7.83081 v 0 c -0.88574,0.56147 -1.77147,1.12293 -2.6572,1.68439 -5.64359,2.85596 -11.81661,5.44868 -18.24506,5.65524 -1.10139,0.0354 -2.19908,-0.14592 -3.29862,-0.21887 3.29872,2.15732 6.63289,4.26138 9.89614,6.47197 0.59723,0.40458 -1.38411,-0.53802 -1.89229,-1.05 -2.48221,-2.50078 -1.95121,-9.98315 -1.75259,-13.00881 0.23963,-1.94671 0.41534,-3.90237 0.71889,-5.84014 2.73587,-17.46469 8.33599,-34.39043 14.01461,-51.06598 2.01909,-4.95952 3.88666,-9.98345 6.05726,-14.87855 10.68448,-24.09541 24.6499,-46.51669 39.09832,-68.49145 0,0 -12.3125,-7.14073 -12.3125,-7.14073 z" />
    <path
       style="fill:#000000"
       id="path253"
       d="m 568.37216,460.38129 c -6.93453,5.78697 -13.44812,12.232 -18.76395,19.56185 -1.36983,1.88882 -2.59363,3.87936 -3.89044,5.81904 -4.39005,7.91932 -9.27746,16.54317 -9.77361,25.82801 -0.0756,1.41565 0.10257,2.83348 0.15385,4.25021 0.90862,5.78701 3.25809,10.32132 7.88306,13.88121 4.76257,2.66689 9.4216,5.52774 14.2877,8.00068 0.49711,0.25262 4.23907,0.5468 4.61578,0.57007 4.69984,0.29044 5.92858,-0.26354 10.31748,-1.96445 1.39123,-0.86111 2.84694,-1.62585 4.17369,-2.58332 7.68484,-5.54588 14.18868,-13.35569 19.94636,-20.80607 1.86286,-2.66206 4.86583,-6.76176 6.35607,-9.66262 2.1387,-4.16312 4.39335,-10.61132 5.76212,-14.89634 3.37305,-10.55947 3.45485,-12.0416 6.13621,-23.51588 1.12114,-5.01423 2.28914,-10.01822 3.36343,-15.0427 4.46543,-20.88499 2.23152,-11.65053 6.61451,-33.01775 3.39609,-16.55608 7.11539,-33.05209 10.73251,-49.56094 3.71769,-16.98828 1.94849,-8.89691 5.30838,-24.27395 0,0 -11.37517,-6.07701 -11.37517,-6.07701 v 0 c -2.74703,15.67094 -1.25209,7.44238 -4.51788,24.67965 -3.19305,15.98572 -3.1287,15.97772 -6.67843,32.40258 -1.2474,5.77181 -2.5822,11.52464 -3.80985,17.30069 -2.82593,13.2959 -3.85681,19.67513 -6.91309,32.81092 -1.15526,4.96527 -2.46835,9.8925 -3.70252,14.83875 -3.41893,12.60288 -6.76802,25.73106 -13.00463,37.32556 -1.75094,3.25518 -4.17697,6.51409 -6.29597,9.52695 -5.76269,7.40422 -11.87619,15.039 -19.80771,20.2584 -1.31593,0.86595 -2.76114,1.51734 -4.14172,2.27601 -1.27454,0.39684 -2.51571,0.92354 -3.82364,1.19051 -2.248,0.45886 -4.13815,0.3062 -6.36968,0.0475 -0.81603,-0.0946 -1.63277,-0.20405 -2.43453,-0.38301 -0.68836,-0.15365 -2.61379,-1.00122 -2.0253,-0.61248 3.56663,2.35603 7.34772,4.37014 11.02158,6.55521 -5.04259,-2.9947 -7.5248,-7.15014 -8.84213,-12.85277 -0.11211,-1.35109 -0.35932,-2.69772 -0.33633,-4.05325 0.15254,-8.9968 4.83244,-17.8187 9.03713,-25.4862 1.28637,-1.90391 2.49804,-3.86049 3.8591,-5.71175 5.32436,-7.24202 11.92799,-13.68269 19.43053,-18.63693 0,0 -12.49291,-7.98639 -12.49291,-7.98639 z" />
    <path
       style="fill:#000000"
       id="path255"
       d="m 644.51113,501.43423 c 11.77053,-1.65314 23.4032,-4.5361 34.21383,-9.59467 3.18416,-1.48995 6.19743,-3.3207 9.29614,-4.98105 9.26962,-6.14895 24.00266,-14.42519 23.08858,-27.65819 -0.10862,-1.57246 -0.79948,-3.04935 -1.19921,-4.57402 -0.92359,-1.24837 -1.66676,-2.65305 -2.77076,-3.74512 -1.14073,-1.12839 -2.48009,-2.06765 -3.88645,-2.8401 -8.20283,-4.50544 -13.64092,-10.09066 -22.5076,-8.44217 -4.72631,0.87871 -8.07538,3.14476 -12.20306,5.39998 -1.90431,1.81841 -4.01591,3.44199 -5.71295,5.45522 -5.32334,6.3152 -10.0479,15.72248 -12.19478,23.68618 -1.80997,6.71392 -1.52848,9.52234 -1.7543,16.30224 0.85023,4.91213 0.92724,9.1236 4.13996,13.2697 1.60232,2.06783 3.64468,3.84081 5.884,5.19315 6.43288,3.88485 13.05142,7.53655 19.98682,10.43038 4.14994,1.73158 18.69937,3.70398 22.86474,4.34979 7.87361,0.73884 15.62708,2.00362 23.55509,0.62993 3.89495,-0.67489 7.68738,-1.96722 11.32967,-3.50338 3.54127,-1.49355 6.74132,-3.69319 10.11198,-5.53979 0,0 -10.77422,-7.03552 -10.77422,-7.03552 v 0 c -3.30258,1.78519 -6.43074,3.93976 -9.90772,5.35556 -3.58692,1.46056 -7.33738,2.61696 -11.16239,3.224 -7.92357,1.25749 -15.48907,-0.0123 -23.34815,-0.79005 -3.94612,-0.65883 -7.92631,-1.13875 -11.83837,-1.97648 -3.79073,-0.81174 -7.36869,-2.93999 -11.24527,-2.96662 -1.40357,-0.01 4.25466,3.61921 3.04324,2.91028 -7.93945,-4.64619 -9.01374,-8.80624 -10.56358,-17.36545 0.0619,-6.66566 -0.30177,-9.38609 1.39495,-16.00192 2.05793,-8.02427 6.48778,-16.83733 12.03338,-23.02489 1.69395,-1.89004 3.80034,-3.36515 5.70051,-5.04772 4.29984,-2.21306 7.04893,-4.13737 11.97114,-4.69507 1.84599,-0.20915 6.256,2.07722 5.56216,0.35385 -1.15335,-2.86469 -5.17332,-3.39344 -7.57,-5.34091 -2.33443,-1.89689 10.10153,6.11026 7.00697,5.68614 0.50551,1.38498 1.29097,2.69795 1.51654,4.15495 1.95865,12.6512 -12.82606,21.19731 -21.46461,26.99925 -3.0906,1.60472 -6.09012,3.39856 -9.27179,4.81415 -11.16758,4.96868 -23.27683,7.52497 -35.42452,8.3496 0,0 12.10003,8.55877 12.10003,8.55877 z" />
    <path
       style="fill:#000000"
       id="path257"
       d="m 769.06065,443.86476 c -0.43128,2.51709 -0.81774,5.04228 -1.29384,7.55127 -1.62118,8.54333 -3.44482,17.047 -5.17798,25.56832 -2.67242,13.13934 -5.39867,26.26695 -8.03203,39.41416 -1.34975,7.19637 -2.55632,14.42014 -3.54353,21.67535 -0.12307,0.90444 -0.20219,1.81488 -0.34233,2.71682 -0.0362,0.23313 -0.40413,0.59327 -0.18591,0.68292 4.4241,1.81745 9.01551,3.19746 13.52327,4.79618 1.14046,-8.87685 2.0877,-17.81275 4.11646,-26.54696 1.7029,-7.33128 2.56597,-9.28638 4.96559,-16.28844 3.77027,-10.00367 8.51451,-19.80901 16.20734,-27.42996 5.4014,-5.35093 7.05851,-5.85752 13.49284,-9.80829 6.97092,-3.38042 14.18881,-6.52855 22.06173,-6.88929 5.84053,-0.26762 11.48517,1.06018 17.18746,2.03205 0,0 -10.54232,-7.93586 -10.54232,-7.93586 v 0 c -6.67385,-1.14644 -11.09974,-2.37927 -17.77763,-1.91477 -7.97576,0.55477 -15.2125,3.86461 -22.22649,7.42253 -6.46333,4.05485 -8.30209,4.70759 -13.75287,10.1246 -7.81202,7.76363 -12.67976,17.68694 -16.45547,27.8926 -1.96676,5.94632 -3.53693,10.3198 -5.04423,16.44164 -2.11407,8.5862 -3.10668,17.41722 -5.22744,26.00311 4.27981,2.95085 8.46596,6.04239 12.83943,8.85256 0.22183,0.14254 -0.21554,-0.49195 -0.23679,-0.75477 -0.0768,-0.95001 -0.0747,-1.90589 -0.0554,-2.85881 0.15045,-7.44837 1.19529,-14.83984 2.29105,-22.19627 4.07067,-24.11195 8.59268,-48.26443 16.15199,-71.56406 0,0 -12.9429,-6.98663 -12.9429,-6.98663 z" />
  </g>
</svg>
